# xmcd
#
# Track frame offsets: 
#        150
#        11309
#        27621
#        33694
#        43960
#        59014
#        70018
#        85295
#        89370
#        101513
#        113326
#        124561
#        143108
#        153636
#        165833
#        178593
#        183690
#        195670
#        208208
#        215221
#        228841
#        233325
#
# Disc length: 3294 seconds
#
# Revision: 0
# Processed by: cddbd v1.5PL3 Copyright (c) Steve Scherf et al.
# Submitted via: ExactAudioCopy v0.90b4
#
DISCID=300cdc16
DTITLE=Schwump - A Light Among The Bump
DYEAR=1900
DGENRE=Ballad
TTITLE0=Introduction
TTITLE1=Fly Away, Baby
TTITLE2=Once I was an Apple
TTITLE3=Laugh at Yourself
TTITLE4=Be Aware Song
TTITLE5=Root Beer
TTITLE6=Crazy People
TTITLE7=Intro
TTITLE8=When I Get Rich
TTITLE9=The Beginning
TTITLE10=Diamonds
TTITLE11=User Friendly
TTITLE12=A Day in Los Angeles
TTITLE13=March of the Megabumps
TTITLE14=You're a Martian
TTITLE15=Intro
TTITLE16=Reality
TTITLE17=Pickle Parade
TTITLE18=I Swallowed my Pride
TTITLE19=I Got the Grrrs
TTITLE20=Closing Words
TTITLE21=Encore
EXTD=
EXTT0=
EXTT1=
EXTT2=
EXTT3=
EXTT4=
EXTT5=
EXTT6=
EXTT7=
EXTT8=
EXTT9=
EXTT10=
EXTT11=
EXTT12=
EXTT13=
EXTT14=
EXTT15=
EXTT16=
EXTT17=
EXTT18=
EXTT19=
EXTT20=
EXTT21=
PLAYORDER=
